<?xml version="1.0" encoding="utf-8"?>
<!-- Generator: Adobe Illustrator 23.0.1, SVG Export Plug-In . SVG Version: 6.00 Build 0)  -->
<svg version="1.1" id="Laag_1" xmlns="http://www.w3.org/2000/svg" xmlns:xlink="http://www.w3.org/1999/xlink" x="0px" y="0px"
	 viewBox="0 0 88.1 88.1" style="enable-background:new 0 0 88.1 88.1;" xml:space="preserve">
<style type="text/css">
	.st0{fill:#1E1B2C;}
	.st1{display:none;}
	.st2{display:inline;}
	.st3{fill:#020203;}
	.st4{display:inline;fill:#FFFFFF;}
	.st5{fill:none;stroke:#3C3C3B;stroke-width:0.2751;stroke-miterlimit:10;}
	.st6{fill:none;stroke:#95C11F;stroke-width:3.3121;stroke-miterlimit:10;}
	.st7{fill:none;stroke:#AD1F6C;stroke-width:3.3121;stroke-miterlimit:10;}
	.st8{fill:none;stroke:#FFFFFF;stroke-width:3.3121;stroke-miterlimit:10;}
	.st9{fill:none;stroke:#FFFFFF;stroke-width:2.751;stroke-miterlimit:10;}
	.st10{fill:#E8B03C;}
</style>
<g>
	<rect y="0" class="st0" width="88.1" height="88.1"/>
</g>
<g class="st1">
	<g class="st2">
		<rect x="-88.1" y="0" class="st3" width="89.7" height="88.1"/>
	</g>
</g>
<g class="st1">
	<path class="st4" d="M-48.9,42.7l-0.1,1.4h1.4l-0.8,7.1h-1.4l-0.2,1.4h5.4l0.2-1.4h-0.8l0.7-6.2c0.7-0.5,1.3-0.7,1.9-0.7
		c0.8,0,1.1,0.5,1,1.5l-0.6,5.4h-0.8l-0.2,1.4h5.4l0.2-1.4h-1.3l0.6-5.5c0.2-2-0.7-3.2-2.5-3.2c-1,0-2.3,0.5-3.5,1.4l0.1-1.1
		C-44.3,42.7-48.9,42.7-48.9,42.7z"/>
	<path class="st4" d="M-9.3,46.5c-1.5-1-1.7-1.2-1.6-1.7c0.1-0.5,0.6-0.8,1.2-0.8c0.9,0,1.5,0.6,1.6,1.5h0.8l0.3-2.9h-1L-8,43
		c-0.5-0.3-1.2-0.5-2-0.5c-2,0-3.7,1.3-3.8,3c-0.1,0.8,0.2,1.7,0.8,2.3c0.3,0.2,0.7,0.6,1.2,1.1c0.2,0.2,0.4,0.3,0.6,0.5
		c0.8,0.5,0.9,0.8,0.9,1.2s-0.6,0.9-1.2,0.9c-1,0-1.8-0.8-2-2h-0.9l-0.3,3.3h0.8l0.3-0.6c0.6,0.4,1.3,0.6,2.3,0.6
		c2.2,0,3.9-1.3,4.1-3C-6.9,48.6-7.5,47.7-9.3,46.5z"/>
	<path class="st4" d="M-30,39.7l-3.4,1.7l-0.2,1.3h-1.6l-0.2,1.4l-0.1,0h1.6l-0.5,5.3c-0.2,2,0.8,3.3,2.8,3.3c1.4,0,2-0.2,3-0.7
		c0.1,0,0.1-0.1,0.2-0.1l-0.2-1.2c-1,0.6-1.5,0.5-2.1,0.1h0C-31,50.6-31,50-30.9,49l0.5-4.8h2.6l0.1-1.4h-2.6L-30,39.7z"/>
	<polygon class="st4" points="-18.9,44.1 -17.8,44.1 -20.5,48.9 -21.7,44.1 -20.6,44.1 -20.4,42.7 -26,42.7 -26.2,44.1 -24.8,44.1 
		-22.7,52.2 -26.1,58.1 -23.3,58.1 -16.4,44.1 -15.3,44.1 -15.2,42.7 -18.7,42.7 	"/>
	<path class="st4" d="M-70.5,31.8c0,0,6.1-1.8,11-1.6c5.2,0.1,10.1,1.9,11.1,2.1c0.7,0.2,1.5,0.1,1.7-0.6c0.1-0.3,0.1-1.1-1.1-2.2
		c-3.7-3.2-8.1-4.4-8.1-4.4c-6.7-6.9-12.5-7.9-12.5-7.9c1.9,2.1,2.9,7.6,2.2,7.9c-11,3.4-14.2,10.1-14.2,10.1
		c0.8-0.7,4.2-3.8,12-5.2C-69.5,31-70.5,31.8-70.5,31.8z"/>
	<path class="st4" d="M-62.6,18.5c3.5,1.8,6.5,6,6.5,6c-0.9-4.2-6.8-12.2-6.7-11.6C-62.3,15.8-62.6,18.5-62.6,18.5z"/>
	<path class="st4" d="M-72.5,39l-0.2,1.5h1.4l-0.5,4.9l0,0l-0.1,0c-1.8-0.2-3.4-0.5-4.9-1.1c-1.8-0.7-3.8-1.9-4.3-3.6
		c-0.6-2.4,1-4.3,2.1-5.2l0,2.1c0.6-2,2.2-3.8,2.2-3.8c-3.8,2.1-5,4.2-5.4,5.7c-0.2,0.7-0.2,1.2-0.1,1.8c0.2,1.3,1.1,2.3,2,3.1
		c2.2,1.8,5,2.7,8.2,3.1l0,0l0,0l-0.4,3.7h-1.4l-0.2,1.5h6.2l0.2-1.5h-1.4l0.3-3.5l0,0l0.1,0c1.2,0,3,0,3,0l0.3-3.2H-66l-0.4,1.1
		c-0.7,0.1-1.7,0.1-1.9,0l-0.1,0l0-0.1l0-0.4l0.5-4.6h3.6l-0.2,1.8h1.5l0.3-3.3L-72.5,39L-72.5,39z"/>
	<path class="st4" d="M-56.4,42.5c3.3,0,5.4,2.2,5,5.2c-0.2,1.4-0.8,2.6-1.9,3.6c-1.2,1-2.5,1.5-4.3,1.5c-3.3,0-5.4-2.2-5.1-5.1
		C-62.3,44.6-59.8,42.5-56.4,42.5z M-59,47.7c-0.3,2.6,0.3,3.9,1.6,3.9c1.4,0,2.2-1.3,2.5-3.9c0.3-2.6-0.3-3.9-1.6-3.9
		C-58,43.8-58.8,45-59,47.7z"/>
</g>
<g>
	<g>
		<circle class="st5" cx="34.9" cy="35.7" r="17.9"/>
		<circle class="st5" cx="52.2" cy="35.7" r="17.9"/>
		<circle class="st5" cx="34.9" cy="51.9" r="17.9"/>
		<circle class="st5" cx="52.2" cy="51.9" r="17.9"/>
	</g>
	<path class="st6" d="M70.1,33.1c0-9.5-7.7-15.3-17.2-15.4v16.1h0V34c-9.5,0-17.3,7.7-17.3,17.3s7.7,17.3,17.3,17.3
		c9.5,0,17.3-7.7,17.3-17.3C70.1,50.6,70.1,33.8,70.1,33.1z"/>
	<path class="st7" d="M35.7,68.6V34c-9.5,0-17.2,7.7-17.2,17.3S26.1,68.5,35.7,68.6z"/>
	<path class="st8" d="M18.4,70.4c0-9.5,7.7-17.3,17.3-17.3S53,60.8,53,70.4"/>
	<path class="st8" d="M53,35.8c0,9.5-7.7,17.3-17.3,17.3s-17.3-7.7-17.3-17.3"/>
	<circle class="st9" cx="28" cy="23.7" r="5.4"/>
	<circle class="st10" cx="35.7" cy="53.1" r="1"/>
</g>
</svg>
